<svg xmlns="http://www.w3.org/2000/svg" xmlns:xlink="http://www.w3.org/1999/xlink" contentStyleType="text/css" height="561px" preserveAspectRatio="none" style="width:701px;height:561px;background:#FFFFFF;" version="1.1" viewBox="0 0 701 561" width="701px" zoomAndPan="magnify"><defs/><g><!--class Product--><g id="elem_Product"><rect codeLine="20" fill="#ADD8E6" height="72.5625" id="Product" rx="2.5" ry="2.5" style="stroke:#00008B;stroke-width:0.5;" width="104.1416" x="320.5" y="199"/><ellipse cx="339.0143" cy="219.1328" fill="#B4A7E5" rx="11" ry="11" style="stroke:#181818;stroke-width:1.0;"/><path d="M334.9362,214.8984 L334.9362,212.7422 L342.3268,212.7422 L342.3268,214.8984 L339.8581,214.8984 L339.8581,222.9766 L342.3268,222.9766 L342.3268,225.1328 L334.9362,225.1328 L334.9362,222.9766 L337.4049,222.9766 L337.4049,214.8984 L334.9362,214.8984 Z " fill="#000000"/><text fill="#000000" font-family="sans-serif" font-size="12" font-style="italic" lengthAdjust="spacing" textLength="68.332" x="351.7953" y="215.1387">&#171;interface&#187;</text><text fill="#000000" font-family="sans-serif" font-size="14" font-style="italic" lengthAdjust="spacing" textLength="53.71" x="359.1063" y="230.9639">Product</text><line style="stroke:#00008B;stroke-width:0.5;" x1="321.5" x2="423.6416" y1="239.2656" y2="239.2656"/><line style="stroke:#00008B;stroke-width:0.5;" x1="321.5" x2="423.6416" y1="247.2656" y2="247.2656"/><ellipse cx="331.5" cy="260.9141" fill="#84BE84" rx="3" ry="3" style="stroke:#038048;stroke-width:1.0;"/><text fill="#000000" font-family="sans-serif" font-size="14" lengthAdjust="spacing" textLength="78.1416" x="340.5" y="264.2607">operation()</text></g><!--class Creator--><g id="elem_Creator"><rect codeLine="24" fill="#ADD8E6" height="88.8594" id="Creator" rx="2.5" ry="2.5" style="stroke:#00008B;stroke-width:0.5;" width="201.6084" x="7" y="247"/><ellipse cx="71.3882" cy="267.1328" fill="#B4A7E5" rx="11" ry="11" style="stroke:#181818;stroke-width:1.0;"/><path d="M67.3101,262.8984 L67.3101,260.7422 L74.7007,260.7422 L74.7007,262.8984 L72.2319,262.8984 L72.2319,270.9766 L74.7007,270.9766 L74.7007,273.1328 L67.3101,273.1328 L67.3101,270.9766 L69.7788,270.9766 L69.7788,262.8984 L67.3101,262.8984 Z " fill="#000000"/><text fill="#000000" font-family="sans-serif" font-size="12" font-style="italic" lengthAdjust="spacing" textLength="68.332" x="89.8882" y="263.1387">&#171;interface&#187;</text><text fill="#000000" font-family="sans-serif" font-size="14" font-style="italic" lengthAdjust="spacing" textLength="52.5342" x="97.7871" y="278.9639">Creator</text><line style="stroke:#00008B;stroke-width:0.5;" x1="8" x2="207.6084" y1="287.2656" y2="287.2656"/><line style="stroke:#00008B;stroke-width:0.5;" x1="8" x2="207.6084" y1="295.2656" y2="295.2656"/><ellipse cx="18" cy="308.9141" fill="#84BE84" rx="3" ry="3" style="stroke:#038048;stroke-width:1.0;"/><text fill="#000000" font-family="sans-serif" font-size="14" lengthAdjust="spacing" textLength="175.6084" x="27" y="312.2607">factoryMethod(): Product</text><ellipse cx="18" cy="325.2109" fill="#84BE84" rx="3" ry="3" style="stroke:#038048;stroke-width:1.0;"/><text fill="#000000" font-family="sans-serif" font-size="14" lengthAdjust="spacing" textLength="118.7061" x="27" y="328.5576">someOperation()</text></g><!--class ConcreteProductA--><g id="elem_ConcreteProductA"><rect codeLine="30" fill="#FFFFFF" height="64.2969" id="ConcreteProductA" rx="2.5" ry="2.5" style="stroke:#000000;stroke-width:0.5;" width="158.6699" x="536" y="151.5"/><ellipse cx="551" cy="167.5" fill="#ADD1B2" rx="11" ry="11" style="stroke:#181818;stroke-width:1.0;"/><path d="M553.9688,173.1406 Q553.3906,173.4375 552.75,173.5781 Q552.1094,173.7344 551.4063,173.7344 Q548.9063,173.7344 547.5781,172.0938 Q546.2656,170.4375 546.2656,167.3125 Q546.2656,164.1875 547.5781,162.5313 Q548.9063,160.875 551.4063,160.875 Q552.1094,160.875 552.75,161.0313 Q553.4063,161.1875 553.9688,161.4844 L553.9688,164.2031 Q553.3438,163.625 552.75,163.3594 Q552.1563,163.0781 551.5313,163.0781 Q550.1875,163.0781 549.5,164.1563 Q548.8125,165.2188 548.8125,167.3125 Q548.8125,169.4063 549.5,170.4844 Q550.1875,171.5469 551.5313,171.5469 Q552.1563,171.5469 552.75,171.2813 Q553.3438,171 553.9688,170.4219 L553.9688,173.1406 Z " fill="#000000"/><text fill="#000000" font-family="sans-serif" font-size="14" lengthAdjust="spacing" textLength="126.6699" x="565" y="172.3467">ConcreteProductA</text><line style="stroke:#000000;stroke-width:0.5;" x1="537" x2="693.6699" y1="183.5" y2="183.5"/><line style="stroke:#000000;stroke-width:0.5;" x1="537" x2="693.6699" y1="191.5" y2="191.5"/><ellipse cx="547" cy="205.1484" fill="#84BE84" rx="3" ry="3" style="stroke:#038048;stroke-width:1.0;"/><text fill="#000000" font-family="sans-serif" font-size="14" lengthAdjust="spacing" textLength="78.1416" x="556" y="208.4951">operation()</text></g><!--class ConcreteProductB--><g id="elem_ConcreteProductB"><rect codeLine="34" fill="#FFFFFF" height="64.2969" id="ConcreteProductB" rx="2.5" ry="2.5" style="stroke:#000000;stroke-width:0.5;" width="158.6973" x="536" y="256.5"/><ellipse cx="551" cy="272.5" fill="#ADD1B2" rx="11" ry="11" style="stroke:#181818;stroke-width:1.0;"/><path d="M553.9688,278.1406 Q553.3906,278.4375 552.75,278.5781 Q552.1094,278.7344 551.4063,278.7344 Q548.9063,278.7344 547.5781,277.0938 Q546.2656,275.4375 546.2656,272.3125 Q546.2656,269.1875 547.5781,267.5313 Q548.9063,265.875 551.4063,265.875 Q552.1094,265.875 552.75,266.0313 Q553.4063,266.1875 553.9688,266.4844 L553.9688,269.2031 Q553.3438,268.625 552.75,268.3594 Q552.1563,268.0781 551.5313,268.0781 Q550.1875,268.0781 549.5,269.1563 Q548.8125,270.2188 548.8125,272.3125 Q548.8125,274.4063 549.5,275.4844 Q550.1875,276.5469 551.5313,276.5469 Q552.1563,276.5469 552.75,276.2813 Q553.3438,276 553.9688,275.4219 L553.9688,278.1406 Z " fill="#000000"/><text fill="#000000" font-family="sans-serif" font-size="14" lengthAdjust="spacing" textLength="126.6973" x="565" y="277.3467">ConcreteProductB</text><line style="stroke:#000000;stroke-width:0.5;" x1="537" x2="693.6973" y1="288.5" y2="288.5"/><line style="stroke:#000000;stroke-width:0.5;" x1="537" x2="693.6973" y1="296.5" y2="296.5"/><ellipse cx="547" cy="310.1484" fill="#84BE84" rx="3" ry="3" style="stroke:#038048;stroke-width:1.0;"/><text fill="#000000" font-family="sans-serif" font-size="14" lengthAdjust="spacing" textLength="78.1416" x="556" y="313.4951">operation()</text></g><!--class ConcreteCreatorA--><g id="elem_ConcreteCreatorA"><rect codeLine="39" fill="#FFFFFF" height="80.5938" id="ConcreteCreatorA" rx="2.5" ry="2.5" style="stroke:#000000;stroke-width:0.5;" width="201.6084" x="271.5" y="7"/><ellipse cx="306.3514" cy="23" fill="#ADD1B2" rx="11" ry="11" style="stroke:#181818;stroke-width:1.0;"/><path d="M309.3202,28.6406 Q308.742,28.9375 308.1014,29.0781 Q307.4608,29.2344 306.7577,29.2344 Q304.2577,29.2344 302.9295,27.5938 Q301.617,25.9375 301.617,22.8125 Q301.617,19.6875 302.9295,18.0313 Q304.2577,16.375 306.7577,16.375 Q307.4608,16.375 308.1014,16.5313 Q308.7577,16.6875 309.3202,16.9844 L309.3202,19.7031 Q308.6952,19.125 308.1014,18.8594 Q307.5077,18.5781 306.8827,18.5781 Q305.5389,18.5781 304.8514,19.6563 Q304.1639,20.7188 304.1639,22.8125 Q304.1639,24.9063 304.8514,25.9844 Q305.5389,27.0469 306.8827,27.0469 Q307.5077,27.0469 308.1014,26.7813 Q308.6952,26.5 309.3202,25.9219 L309.3202,28.6406 Z " fill="#000000"/><text fill="#000000" font-family="sans-serif" font-size="14" lengthAdjust="spacing" textLength="125.4941" x="324.7628" y="27.8467">ConcreteCreatorA</text><line style="stroke:#000000;stroke-width:0.5;" x1="272.5" x2="472.1084" y1="39" y2="39"/><line style="stroke:#000000;stroke-width:0.5;" x1="272.5" x2="472.1084" y1="47" y2="47"/><ellipse cx="282.5" cy="60.6484" fill="#84BE84" rx="3" ry="3" style="stroke:#038048;stroke-width:1.0;"/><text fill="#000000" font-family="sans-serif" font-size="14" lengthAdjust="spacing" textLength="175.6084" x="291.5" y="63.9951">factoryMethod(): Product</text><ellipse cx="282.5" cy="76.9453" fill="#84BE84" rx="3" ry="3" style="stroke:#038048;stroke-width:1.0;"/><text fill="#000000" font-family="sans-serif" font-size="14" lengthAdjust="spacing" textLength="118.7061" x="291.5" y="80.292">someOperation()</text></g><!--class ConcreteCreatorB--><g id="elem_ConcreteCreatorB"><rect codeLine="44" fill="#FFFFFF" height="80.5938" id="ConcreteCreatorB" rx="2.5" ry="2.5" style="stroke:#000000;stroke-width:0.5;" width="201.6084" x="271.5" y="307"/><ellipse cx="306.3391" cy="323" fill="#ADD1B2" rx="11" ry="11" style="stroke:#181818;stroke-width:1.0;"/><path d="M309.3079,328.6406 Q308.7297,328.9375 308.0891,329.0781 Q307.4485,329.2344 306.7454,329.2344 Q304.2454,329.2344 302.9172,327.5938 Q301.6047,325.9375 301.6047,322.8125 Q301.6047,319.6875 302.9172,318.0313 Q304.2454,316.375 306.7454,316.375 Q307.4485,316.375 308.0891,316.5313 Q308.7454,316.6875 309.3079,316.9844 L309.3079,319.7031 Q308.6829,319.125 308.0891,318.8594 Q307.4954,318.5781 306.8704,318.5781 Q305.5266,318.5781 304.8391,319.6563 Q304.1516,320.7188 304.1516,322.8125 Q304.1516,324.9063 304.8391,325.9844 Q305.5266,327.0469 306.8704,327.0469 Q307.4954,327.0469 308.0891,326.7813 Q308.6829,326.5 309.3079,325.9219 L309.3079,328.6406 Z " fill="#000000"/><text fill="#000000" font-family="sans-serif" font-size="14" lengthAdjust="spacing" textLength="125.5215" x="324.7478" y="327.8467">ConcreteCreatorB</text><line style="stroke:#000000;stroke-width:0.5;" x1="272.5" x2="472.1084" y1="339" y2="339"/><line style="stroke:#000000;stroke-width:0.5;" x1="272.5" x2="472.1084" y1="347" y2="347"/><ellipse cx="282.5" cy="360.6484" fill="#84BE84" rx="3" ry="3" style="stroke:#038048;stroke-width:1.0;"/><text fill="#000000" font-family="sans-serif" font-size="14" lengthAdjust="spacing" textLength="175.6084" x="291.5" y="363.9951">factoryMethod(): Product</text><ellipse cx="282.5" cy="376.9453" fill="#84BE84" rx="3" ry="3" style="stroke:#038048;stroke-width:1.0;"/><text fill="#000000" font-family="sans-serif" font-size="14" lengthAdjust="spacing" textLength="118.7061" x="291.5" y="380.292">someOperation()</text></g><g id="elem_GMN15"><path d="M269,499 L269,554.3984 L476.3799,554.3984 L476.3799,509 L466.3799,499 L269,499 " fill="#FEFFDD" style="stroke:#181818;stroke-width:0.5;"/><path d="M466.3799,499 L466.3799,509 L476.3799,509 L466.3799,499 " fill="#FEFFDD" style="stroke:#181818;stroke-width:1.0;"/><text fill="#000000" font-family="sans-serif" font-size="13" lengthAdjust="spacing" textLength="161.7827" x="275" y="516.0669">The Creator declares the</text><text fill="#000000" font-family="sans-serif" font-size="13" lengthAdjust="spacing" textLength="186.3799" x="275" y="531.1997">factoryMethod() that returns</text><text fill="#000000" font-family="sans-serif" font-size="13" lengthAdjust="spacing" textLength="106.1646" x="275" y="546.3325">a Product object</text></g><g id="elem_GMN18"><path d="M272,123.5 L272,163.7656 A0,0 0 0 0 272,163.7656 L473.4893,163.7656 A0,0 0 0 0 473.4893,163.7656 L473.4893,133.5 L463.4893,123.5 L377,123.5 L373,88.21 L369,123.5 L272,123.5 A0,0 0 0 0 272,123.5 " fill="#FEFFDD" style="stroke:#181818;stroke-width:0.5;"/><path d="M463.4893,123.5 L463.4893,133.5 L473.4893,133.5 L463.4893,123.5 " fill="#FEFFDD" style="stroke:#181818;stroke-width:0.5;"/><text fill="#000000" font-family="sans-serif" font-size="13" lengthAdjust="spacing" textLength="172.0596" x="278" y="140.5669">Overrides factoryMethod()</text><text fill="#000000" font-family="sans-serif" font-size="13" lengthAdjust="spacing" textLength="180.4893" x="278" y="155.6997">to create ConcreteProductA</text></g><g id="elem_GMN21"><path d="M271.5,423.5 L271.5,463.7656 A0,0 0 0 0 271.5,463.7656 L473.0146,463.7656 A0,0 0 0 0 473.0146,463.7656 L473.0146,433.5 L463.0146,423.5 L377,423.5 L373,388.21 L369,423.5 L271.5,423.5 A0,0 0 0 0 271.5,423.5 " fill="#FEFFDD" style="stroke:#181818;stroke-width:0.5;"/><path d="M463.0146,423.5 L463.0146,433.5 L473.0146,433.5 L463.0146,423.5 " fill="#FEFFDD" style="stroke:#181818;stroke-width:0.5;"/><text fill="#000000" font-family="sans-serif" font-size="13" lengthAdjust="spacing" textLength="172.0596" x="277.5" y="440.5669">Overrides factoryMethod()</text><text fill="#000000" font-family="sans-serif" font-size="13" lengthAdjust="spacing" textLength="180.5146" x="277.5" y="455.6997">to create ConcreteProductB</text></g><!--reverse link Creator to ConcreteCreatorA--><g id="link_Creator_ConcreteCreatorA"><path codeLine="50" d="M108,228.75 C108,158.31 108,47.5 108,47.5 C108,47.5 196.7,47.5 271.37,47.5 " fill="none" id="Creator-backto-ConcreteCreatorA" style="stroke:#181818;stroke-width:1.0;stroke-dasharray:7.0,7.0;"/><polygon fill="none" points="108,246.75,114,228.75,102,228.75,108,246.75" style="stroke:#181818;stroke-width:1.0;"/><text fill="#000000" font-family="sans-serif" font-size="13" lengthAdjust="spacing" textLength="76.9082" x="31" y="78.5069">implements</text></g><!--reverse link Creator to ConcreteCreatorB--><g id="link_Creator_ConcreteCreatorB"><path codeLine="51" d="M227.13,321.5 C247.55,321.5 251.01,321.5 271.43,321.5 " fill="none" id="Creator-backto-ConcreteCreatorB" style="stroke:#181818;stroke-width:1.0;stroke-dasharray:7.0,7.0;"/><polygon fill="none" points="209.13,321.5,227.13,327.5,227.13,315.5,209.13,321.5" style="stroke:#181818;stroke-width:1.0;"/><text fill="#000000" font-family="sans-serif" font-size="13" lengthAdjust="spacing" textLength="76.9082" x="241.28" y="317.5669">implements</text></g><!--reverse link Product to ConcreteProductA--><g id="link_Product_ConcreteProductA"><path codeLine="53" d="M442.63,207.25 C474.98,207.25 499.21,207.25 535.71,207.25 " fill="none" id="Product-backto-ConcreteProductA" style="stroke:#181818;stroke-width:1.0;stroke-dasharray:7.0,7.0;"/><polygon fill="none" points="424.63,207.25,442.63,213.25,442.63,201.25,424.63,207.25" style="stroke:#181818;stroke-width:1.0;"/><text fill="#000000" font-family="sans-serif" font-size="13" lengthAdjust="spacing" textLength="76.9082" x="481.17" y="220.3169">implements</text></g><!--reverse link Product to ConcreteProductB--><g id="link_Product_ConcreteProductB"><path codeLine="54" d="M442.63,264.25 C474.98,264.25 499.21,264.25 535.71,264.25 " fill="none" id="Product-backto-ConcreteProductB" style="stroke:#181818;stroke-width:1.0;stroke-dasharray:7.0,7.0;"/><polygon fill="none" points="424.63,264.25,442.63,270.25,442.63,258.25,424.63,264.25" style="stroke:#181818;stroke-width:1.0;"/><text fill="#000000" font-family="sans-serif" font-size="13" lengthAdjust="spacing" textLength="76.9082" x="403.17" y="277.3169">implements</text></g><!--link ConcreteCreatorA to ConcreteProductA--><g id="link_ConcreteCreatorA_ConcreteProductA"><path codeLine="56" d="M473.65,47.5 C540.55,47.5 616,47.5 616,47.5 C616,47.5 616,105.05 616,145.27 " fill="none" id="ConcreteCreatorA-to-ConcreteProductA" style="stroke:#181818;stroke-width:1.0;stroke-dasharray:7.0,7.0;"/><polygon fill="#181818" points="616,151.27,620,142.27,616,146.27,612,142.27,616,151.27" style="stroke:#181818;stroke-width:1.0;"/><text fill="#000000" font-family="sans-serif" font-size="13" lengthAdjust="spacing" textLength="64.2319" x="531.71" y="60.5669">&#171;creates&#187;</text></g><!--link ConcreteCreatorB to ConcreteProductB--><g id="link_ConcreteCreatorB_ConcreteProductB"><path codeLine="57" d="M473.79,313.75 C494.5,313.75 510.01,313.75 529.83,313.75 " fill="none" id="ConcreteCreatorB-to-ConcreteProductB" style="stroke:#181818;stroke-width:1.0;stroke-dasharray:7.0,7.0;"/><polygon fill="#181818" points="535.83,313.75,526.83,309.75,530.83,313.75,526.83,317.75,535.83,313.75" style="stroke:#181818;stroke-width:1.0;"/><text fill="#000000" font-family="sans-serif" font-size="13" lengthAdjust="spacing" textLength="64.2319" x="505.81" y="326.8169">&#171;creates&#187;</text></g><!--link Creator to Product--><g id="link_Creator_Product"><path codeLine="59" d="M209.13,259.5 C247.05,259.5 282.58,259.5 314.29,259.5 " fill="none" id="Creator-to-Product" style="stroke:#181818;stroke-width:1.0;stroke-dasharray:7.0,7.0;"/><polygon fill="#181818" points="320.29,259.5,311.29,255.5,315.29,259.5,311.29,263.5,320.29,259.5" style="stroke:#181818;stroke-width:1.0;"/><text fill="#000000" font-family="sans-serif" font-size="13" lengthAdjust="spacing" textLength="45.6904" x="218.71" y="272.5669">&#171;uses&#187;</text></g><!--link Creator to GMN15--><g id="link_Creator_GMN15"><path d="M108,336.25 C108,404.44 108,526.5 108,526.5 C108,526.5 194.62,526.5 268.72,526.5 " fill="none" id="Creator-GMN15" style="stroke:#181818;stroke-width:1.0;stroke-dasharray:7.0,7.0;"/></g><!--SRC=[dLHDQzj04BtlhvXR4afyw34OG-HGABIaj8MUrzgHjVLgHyokR4pR_zvPoPPbIOJWcwHvyzwR3yqTVAvgfZqQAEssV7IuHmUVT1w9Zs2ithAkr1qy0d4iQKjUEz3CT0WG2VIUh059PwVh5cPzH2vqZa5W224UdN0RMnJ8wACxGi5KGKu-Pum8kTCXO6XpdTwWI_2MH3nOyW52IGSe71sKSbZ49CjYDGefOujHOMTzhSKfEEin7clix0u2eTI63jPleT0ku22IKrMJ5sy_abTeAlTHYPtkRL3Ee8PXTl8FVnH0flFTbgdnPasEUBdiSrSh-98SPwx112Gso3EW5ysxC-QQ37wLDevo8NC2Kl-IsHSifF21MzK_mZScq-GHhhMIumzKIvjJ1-yV4iybPysePGFcSefkDxwYzDVSFpoT-LCiK8MlrvozjtxYTOSFgclT-lJzHFCywsmMcir2fu9vLynOy5JZyqrbpL9bDtReExhsFPIs3ghl_T_5Ochs2MnLEwna3z-6PjTGrQ_14Dit_Ghx5dHCEp6uMApcw9VBTWmOLYirSJgJauro-beJzcmmGPhGnJt9gBl3GCLvWQNbFylBEXkKkR7yox5CFzDeKF9LHn0F3ViWOTthqEQtN1g5ta2IEObjA4OvPKbjr0H9VfMRoDQ8raX5OdB1ki8cZNgtH7QhH7QH-0y0]--></g></svg>