<svg xmlns="http://www.w3.org/2000/svg" xmlns:xlink="http://www.w3.org/1999/xlink" contentStyleType="text/css" height="502px" preserveAspectRatio="none" style="width:874px;height:502px;background:#FFFFFF;" version="1.1" viewBox="0 0 874 502" width="874px" zoomAndPan="magnify"><defs/><g><line style="stroke:#181818;stroke-width:0.5;stroke-dasharray:5.0,5.0;" x1="23" x2="23" y1="81.2969" y2="421.7578"/><line style="stroke:#181818;stroke-width:0.5;stroke-dasharray:5.0,5.0;" x1="143.1675" x2="143.1675" y1="81.2969" y2="421.7578"/><line style="stroke:#181818;stroke-width:0.5;stroke-dasharray:5.0,5.0;" x1="299.6279" x2="299.6279" y1="81.2969" y2="421.7578"/><line style="stroke:#181818;stroke-width:0.5;stroke-dasharray:5.0,5.0;" x1="561.3457" x2="561.3457" y1="81.2969" y2="421.7578"/><line style="stroke:#181818;stroke-width:0.5;stroke-dasharray:5.0,5.0;" x1="775.3096" x2="775.3096" y1="81.2969" y2="421.7578"/><line style="stroke:#181818;stroke-width:0.5;stroke-dasharray:5.0,5.0;" x1="842.2041" x2="842.2041" y1="81.2969" y2="421.7578"/><text fill="#000000" font-family="sans-serif" font-size="14" lengthAdjust="spacing" textLength="31.9102" x="5" y="77.9951">User</text><ellipse cx="23.9551" cy="13.5" fill="#E2E2F0" rx="8" ry="8" style="stroke:#181818;stroke-width:0.5;"/><path d="M23.9551,21.5 L23.9551,48.5 M10.9551,29.5 L36.9551,29.5 M23.9551,48.5 L10.9551,63.5 M23.9551,48.5 L36.9551,63.5 " fill="none" style="stroke:#181818;stroke-width:0.5;"/><text fill="#000000" font-family="sans-serif" font-size="14" lengthAdjust="spacing" textLength="31.9102" x="5" y="433.7529">User</text><ellipse cx="23.9551" cy="445.5547" fill="#E2E2F0" rx="8" ry="8" style="stroke:#181818;stroke-width:0.5;"/><path d="M23.9551,453.5547 L23.9551,480.5547 M10.9551,461.5547 L36.9551,461.5547 M23.9551,480.5547 L10.9551,495.5547 M23.9551,480.5547 L36.9551,495.5547 " fill="none" style="stroke:#181818;stroke-width:0.5;"/><rect fill="#E2E2F0" height="30.2969" rx="2.5" ry="2.5" style="stroke:#181818;stroke-width:0.5;" width="41.3506" x="123.1675" y="50"/><text fill="#000000" font-family="sans-serif" font-size="14" lengthAdjust="spacing" textLength="27.3506" x="130.1675" y="69.9951">App</text><rect fill="#E2E2F0" height="30.2969" rx="2.5" ry="2.5" style="stroke:#181818;stroke-width:0.5;" width="41.3506" x="123.1675" y="420.7578"/><text fill="#000000" font-family="sans-serif" font-size="14" lengthAdjust="spacing" textLength="27.3506" x="130.1675" y="440.7529">App</text><rect fill="#E2E2F0" height="30.2969" rx="2.5" ry="2.5" style="stroke:#181818;stroke-width:0.5;" width="124.6191" x="237.6279" y="50"/><text fill="#000000" font-family="sans-serif" font-size="14" lengthAdjust="spacing" textLength="110.6191" x="244.6279" y="69.9951">FactoryProvider</text><rect fill="#E2E2F0" height="30.2969" rx="2.5" ry="2.5" style="stroke:#181818;stroke-width:0.5;" width="124.6191" x="237.6279" y="420.7578"/><text fill="#000000" font-family="sans-serif" font-size="14" lengthAdjust="spacing" textLength="110.6191" x="244.6279" y="440.7529">FactoryProvider</text><rect fill="#E2E2F0" height="30.2969" rx="2.5" ry="2.5" style="stroke:#181818;stroke-width:0.5;" width="80.8008" x="521.3457" y="50"/><text fill="#000000" font-family="sans-serif" font-size="14" lengthAdjust="spacing" textLength="66.8008" x="528.3457" y="69.9951">UIFactory</text><rect fill="#E2E2F0" height="30.2969" rx="2.5" ry="2.5" style="stroke:#181818;stroke-width:0.5;" width="80.8008" x="521.3457" y="420.7578"/><text fill="#000000" font-family="sans-serif" font-size="14" lengthAdjust="spacing" textLength="66.8008" x="528.3457" y="440.7529">UIFactory</text><rect fill="#E2E2F0" height="30.2969" rx="2.5" ry="2.5" style="stroke:#181818;stroke-width:0.5;" width="60.8945" x="745.3096" y="50"/><text fill="#000000" font-family="sans-serif" font-size="14" lengthAdjust="spacing" textLength="46.8945" x="752.3096" y="69.9951">Button</text><rect fill="#E2E2F0" height="30.2969" rx="2.5" ry="2.5" style="stroke:#181818;stroke-width:0.5;" width="60.8945" x="745.3096" y="420.7578"/><text fill="#000000" font-family="sans-serif" font-size="14" lengthAdjust="spacing" textLength="46.8945" x="752.3096" y="440.7529">Button</text><rect fill="#E2E2F0" height="30.2969" rx="2.5" ry="2.5" style="stroke:#181818;stroke-width:0.5;" width="52.4385" x="816.2041" y="50"/><text fill="#000000" font-family="sans-serif" font-size="14" lengthAdjust="spacing" textLength="38.4385" x="823.2041" y="69.9951">Menu</text><rect fill="#E2E2F0" height="30.2969" rx="2.5" ry="2.5" style="stroke:#181818;stroke-width:0.5;" width="52.4385" x="816.2041" y="420.7578"/><text fill="#000000" font-family="sans-serif" font-size="14" lengthAdjust="spacing" textLength="38.4385" x="823.2041" y="440.7529">Menu</text><polygon fill="#181818" points="131.8428,108.4297,141.8428,112.4297,131.8428,116.4297,135.8428,112.4297" style="stroke:#181818;stroke-width:1.0;"/><line style="stroke:#181818;stroke-width:1.0;" x1="23.9551" x2="137.8428" y1="112.4297" y2="112.4297"/><text fill="#000000" font-family="sans-serif" font-size="13" lengthAdjust="spacing" textLength="95.8877" x="30.9551" y="107.3638">start(platform)</text><polygon fill="#181818" points="287.9375,137.5625,297.9375,141.5625,287.9375,145.5625,291.9375,141.5625" style="stroke:#181818;stroke-width:1.0;"/><line style="stroke:#181818;stroke-width:1.0;" x1="143.8428" x2="293.9375" y1="141.5625" y2="141.5625"/><text fill="#000000" font-family="sans-serif" font-size="13" lengthAdjust="spacing" textLength="132.0947" x="150.8428" y="136.4966">getFactory("flutter")</text><polygon fill="#181818" points="549.7461,166.6953,559.7461,170.6953,549.7461,174.6953,553.7461,170.6953" style="stroke:#181818;stroke-width:1.0;"/><line style="stroke:#181818;stroke-width:1.0;" x1="299.9375" x2="555.7461" y1="170.6953" y2="170.6953"/><text fill="#000000" font-family="sans-serif" font-size="13" lengthAdjust="spacing" textLength="237.8086" x="306.9375" y="165.6294">instantiate concrete factory (Flutter)</text><polygon fill="#181818" points="549.7461,195.8281,559.7461,199.8281,549.7461,203.8281,553.7461,199.8281" style="stroke:#181818;stroke-width:1.0;"/><line style="stroke:#181818;stroke-width:1.0;" x1="143.8428" x2="555.7461" y1="199.8281" y2="199.8281"/><text fill="#000000" font-family="sans-serif" font-size="13" lengthAdjust="spacing" textLength="95.2402" x="150.8428" y="194.7622">createButton()</text><polygon fill="#181818" points="763.7568,224.9609,773.7568,228.9609,763.7568,232.9609,767.7568,228.9609" style="stroke:#181818;stroke-width:1.0;"/><line style="stroke:#181818;stroke-width:1.0;" x1="561.7461" x2="769.7568" y1="228.9609" y2="228.9609"/><text fill="#000000" font-family="sans-serif" font-size="13" lengthAdjust="spacing" textLength="190.0107" x="568.7461" y="223.895">return FlutterButton instance</text><polygon fill="#181818" points="549.7461,254.0938,559.7461,258.0938,549.7461,262.0938,553.7461,258.0938" style="stroke:#181818;stroke-width:1.0;"/><line style="stroke:#181818;stroke-width:1.0;" x1="143.8428" x2="555.7461" y1="258.0938" y2="258.0938"/><text fill="#000000" font-family="sans-serif" font-size="13" lengthAdjust="spacing" textLength="87.3882" x="150.8428" y="253.0278">createMenu()</text><polygon fill="#181818" points="830.4233,283.2266,840.4233,287.2266,830.4233,291.2266,834.4233,287.2266" style="stroke:#181818;stroke-width:1.0;"/><line style="stroke:#181818;stroke-width:1.0;" x1="561.7461" x2="836.4233" y1="287.2266" y2="287.2266"/><text fill="#000000" font-family="sans-serif" font-size="13" lengthAdjust="spacing" textLength="182.1587" x="568.7461" y="282.1606">return FlutterMenu instance</text><polygon fill="#181818" points="763.7568,312.3594,773.7568,316.3594,763.7568,320.3594,767.7568,316.3594" style="stroke:#181818;stroke-width:1.0;"/><line style="stroke:#181818;stroke-width:1.0;" x1="143.8428" x2="769.7568" y1="316.3594" y2="316.3594"/><text fill="#000000" font-family="sans-serif" font-size="13" lengthAdjust="spacing" textLength="53.3203" x="150.8428" y="311.2935">render()</text><polygon fill="#181818" points="830.4233,341.4922,840.4233,345.4922,830.4233,349.4922,834.4233,345.4922" style="stroke:#181818;stroke-width:1.0;"/><line style="stroke:#181818;stroke-width:1.0;" x1="143.8428" x2="836.4233" y1="345.4922" y2="345.4922"/><text fill="#000000" font-family="sans-serif" font-size="13" lengthAdjust="spacing" textLength="53.3203" x="150.8428" y="340.4263">render()</text><polygon fill="#181818" points="763.7568,370.625,773.7568,374.625,763.7568,378.625,767.7568,374.625" style="stroke:#181818;stroke-width:1.0;"/><line style="stroke:#181818;stroke-width:1.0;" x1="23.9551" x2="769.7568" y1="374.625" y2="374.625"/><text fill="#000000" font-family="sans-serif" font-size="13" lengthAdjust="spacing" textLength="39.1904" x="30.9551" y="369.5591">click()</text><polygon fill="#181818" points="154.8428,399.7578,144.8428,403.7578,154.8428,407.7578,150.8428,403.7578" style="stroke:#181818;stroke-width:1.0;"/><line style="stroke:#181818;stroke-width:1.0;" x1="148.8428" x2="774.7568" y1="403.7578" y2="403.7578"/><text fill="#000000" font-family="sans-serif" font-size="13" lengthAdjust="spacing" textLength="118.5044" x="160.8428" y="398.6919">onClick() behavior</text><!--SRC=[TP5D3i8W48Ntd89qHHTUm8M9cZHnOUB60o1I9TQ1Z5CJR-yWY1RZ3hxtvZr-j26FSd-pA896SiO53IIN8KpsdOw-nmxztHqhxtwJrGbTZKGU9cXhOHGYTidP8bR8kRmH6rGODFKUhws8bCMgZuqdIncgfXyut6BJYjh7e-KuFEI0yu6S9YkD1uEM5tsMLPTYIkdt95jvA5r2jU8ZiIzHDd7SY21pJiQfqzZ_gV4Twip8VX9ViCxxQWU-iYh7Bn4Pln-w39Z1cGiB6PG_yB1EYZpOixuxZqy0]--></g></svg>