<svg xmlns="http://www.w3.org/2000/svg" xmlns:xlink="http://www.w3.org/1999/xlink" contentStyleType="text/css" height="680px" preserveAspectRatio="none" style="width:1451px;height:680px;background:#FFFFFF;" version="1.1" viewBox="0 0 1451 680" width="1451px" zoomAndPan="magnify"><defs/><g><!--cluster Client--><g id="cluster_Client"><path d="M8.5,194 L55.5264,194 A3.75,3.75 0 0 1 58.0264,196.5 L65.0264,216.2969 L186.5,216.2969 A2.5,2.5 0 0 1 189,218.7969 L189,330.5 A2.5,2.5 0 0 1 186.5,333 L8.5,333 A2.5,2.5 0 0 1 6,330.5 L6,196.5 A2.5,2.5 0 0 1 8.5,194 " fill="none" style="stroke:#000000;stroke-width:1.5;"/><line style="stroke:#000000;stroke-width:1.5;" x1="6" x2="65.0264" y1="216.2969" y2="216.2969"/><text fill="#000000" font-family="sans-serif" font-size="14" font-weight="bold" lengthAdjust="spacing" textLength="46.0264" x="10" y="208.9951">Client</text></g><!--cluster Factory Selection--><g id="cluster_Factory Selection"><path d="M256,255 L394.7715,255 A3.75,3.75 0 0 1 397.2715,257.5 L404.2715,277.2969 L531,277.2969 A2.5,2.5 0 0 1 533.5,279.7969 L533.5,377.5 A2.5,2.5 0 0 1 531,380 L256,380 A2.5,2.5 0 0 1 253.5,377.5 L253.5,257.5 A2.5,2.5 0 0 1 256,255 " fill="none" style="stroke:#000000;stroke-width:1.5;"/><line style="stroke:#000000;stroke-width:1.5;" x1="253.5" x2="404.2715" y1="277.2969" y2="277.2969"/><text fill="#000000" font-family="sans-serif" font-size="14" font-weight="bold" lengthAdjust="spacing" textLength="137.7715" x="257.5" y="269.9951">Factory Selection</text></g><!--cluster Factory Abstraction--><g id="cluster_Factory Abstraction"><path d="M600.5,252 L757.6328,252 A3.75,3.75 0 0 1 760.1328,254.5 L767.1328,274.2969 L812.5,274.2969 A2.5,2.5 0 0 1 815,276.7969 L815,388.5 A2.5,2.5 0 0 1 812.5,391 L600.5,391 A2.5,2.5 0 0 1 598,388.5 L598,254.5 A2.5,2.5 0 0 1 600.5,252 " fill="none" style="stroke:#000000;stroke-width:1.5;"/><line style="stroke:#000000;stroke-width:1.5;" x1="598" x2="767.1328" y1="274.2969" y2="274.2969"/><text fill="#000000" font-family="sans-serif" font-size="14" font-weight="bold" lengthAdjust="spacing" textLength="156.1328" x="602" y="266.9951">Factory Abstraction</text></g><!--cluster Product Abstractions--><g id="cluster_Product Abstractions"><path d="M863,64 L1030.5781,64 A3.75,3.75 0 0 1 1033.0781,66.5 L1040.0781,86.2969 L1040,86.2969 A2.5,2.5 0 0 1 1042.5,88.7969 L1042.5,259.5 A2.5,2.5 0 0 1 1040,262 L863,262 A2.5,2.5 0 0 1 860.5,259.5 L860.5,66.5 A2.5,2.5 0 0 1 863,64 " fill="none" style="stroke:#000000;stroke-width:1.5;"/><line style="stroke:#000000;stroke-width:1.5;" x1="860.5" x2="1040.0781" y1="86.2969" y2="86.2969"/><text fill="#000000" font-family="sans-serif" font-size="14" font-weight="bold" lengthAdjust="spacing" textLength="166.5781" x="864.5" y="78.9951">Product Abstractions</text></g><!--cluster Concrete Factories--><g id="cluster_Concrete Factories"><path d="M845.5,286 L995.2705,286 A3.75,3.75 0 0 1 997.7705,288.5 L1004.7705,308.2969 L1057.5,308.2969 A2.5,2.5 0 0 1 1060,310.7969 L1060,670.5 A2.5,2.5 0 0 1 1057.5,673 L845.5,673 A2.5,2.5 0 0 1 843,670.5 L843,288.5 A2.5,2.5 0 0 1 845.5,286 " fill="none" style="stroke:#000000;stroke-width:1.5;"/><line style="stroke:#000000;stroke-width:1.5;" x1="843" x2="1004.7705" y1="308.2969" y2="308.2969"/><text fill="#000000" font-family="sans-serif" font-size="14" font-weight="bold" lengthAdjust="spacing" textLength="148.7705" x="847" y="300.9951">Concrete Factories</text></g><!--cluster Concrete Products--><g id="cluster_Concrete Products"><path d="M1194,62 L1340.7148,62 A3.75,3.75 0 0 1 1343.2148,64.5 L1350.2148,84.2969 L1354,84.2969 A2.5,2.5 0 0 1 1356.5,86.7969 L1356.5,621.5 A2.5,2.5 0 0 1 1354,624 L1194,624 A2.5,2.5 0 0 1 1191.5,621.5 L1191.5,64.5 A2.5,2.5 0 0 1 1194,62 " fill="none" style="stroke:#000000;stroke-width:1.5;"/><line style="stroke:#000000;stroke-width:1.5;" x1="1191.5" x2="1350.2148" y1="84.2969" y2="84.2969"/><text fill="#000000" font-family="sans-serif" font-size="14" font-weight="bold" lengthAdjust="spacing" textLength="145.7148" x="1195.5" y="76.9951">Concrete Products</text></g><!--class App--><g id="elem_App"><rect codeLine="25" fill="#FFF7ED" height="88.8594" id="App" rx="2.5" ry="2.5" style="stroke:#D97706;stroke-width:0.5;" width="151.2686" x="22" y="228.5"/><ellipse cx="62.1591" cy="248.6328" fill="#ADD1B2" rx="11" ry="11" style="stroke:#181818;stroke-width:1.0;"/><path d="M65.1279,254.2734 Q64.5498,254.5703 63.9091,254.7109 Q63.2685,254.8672 62.5654,254.8672 Q60.0654,254.8672 58.7373,253.2266 Q57.4248,251.5703 57.4248,248.4453 Q57.4248,245.3203 58.7373,243.6641 Q60.0654,242.0078 62.5654,242.0078 Q63.2685,242.0078 63.9091,242.1641 Q64.5654,242.3203 65.1279,242.6172 L65.1279,245.3359 Q64.5029,244.7578 63.9091,244.4922 Q63.3154,244.2109 62.6904,244.2109 Q61.3466,244.2109 60.6591,245.2891 Q59.9716,246.3516 59.9716,248.4453 Q59.9716,250.5391 60.6591,251.6172 Q61.3466,252.6797 62.6904,252.6797 Q63.3154,252.6797 63.9091,252.4141 Q64.5029,252.1328 65.1279,251.5547 L65.1279,254.2734 Z " fill="#000000"/><text fill="#000000" font-family="sans-serif" font-size="12" font-style="italic" lengthAdjust="spacing" textLength="67.3594" x="79.75" y="244.6387">&#171;concrete&#187;</text><text fill="#000000" font-family="sans-serif" font-size="14" lengthAdjust="spacing" textLength="27.3506" x="99.7544" y="260.4639">App</text><line style="stroke:#D97706;stroke-width:0.5;" x1="23" x2="172.2686" y1="268.7656" y2="268.7656"/><rect fill="none" height="6" style="stroke:#C82930;stroke-width:1.0;" width="6" x="30" y="279.4141"/><text fill="#000000" font-family="sans-serif" font-size="14" lengthAdjust="spacing" textLength="125.2686" x="42" y="285.7607">factory: UIFactory</text><line style="stroke:#D97706;stroke-width:0.5;" x1="23" x2="172.2686" y1="293.0625" y2="293.0625"/><ellipse cx="33" cy="306.7109" fill="#84BE84" rx="3" ry="3" style="stroke:#038048;stroke-width:1.0;"/><text fill="#000000" font-family="sans-serif" font-size="14" lengthAdjust="spacing" textLength="76.4189" x="42" y="310.0576">main(args)</text></g><!--class FactoryProvider--><g id="elem_FactoryProvider"><rect codeLine="32" fill="#FFF7ED" height="72.5625" id="FactoryProvider" rx="2.5" ry="2.5" style="stroke:#D97706;stroke-width:0.5;" width="248.0381" x="269.5" y="290.5"/><ellipse cx="333.9595" cy="310.6328" fill="#ADD1B2" rx="11" ry="11" style="stroke:#181818;stroke-width:1.0;"/><path d="M336.9282,316.2734 Q336.3501,316.5703 335.7095,316.7109 Q335.0688,316.8672 334.3657,316.8672 Q331.8657,316.8672 330.5376,315.2266 Q329.2251,313.5703 329.2251,310.4453 Q329.2251,307.3203 330.5376,305.6641 Q331.8657,304.0078 334.3657,304.0078 Q335.0688,304.0078 335.7095,304.1641 Q336.3657,304.3203 336.9282,304.6172 L336.9282,307.3359 Q336.3032,306.7578 335.7095,306.4922 Q335.1157,306.2109 334.4907,306.2109 Q333.147,306.2109 332.4595,307.2891 Q331.772,308.3516 331.772,310.4453 Q331.772,312.5391 332.4595,313.6172 Q333.147,314.6797 334.4907,314.6797 Q335.1157,314.6797 335.7095,314.4141 Q336.3032,314.1328 336.9282,313.5547 L336.9282,316.2734 Z " fill="#000000"/><text fill="#000000" font-family="sans-serif" font-size="12" font-style="italic" lengthAdjust="spacing" textLength="67.3594" x="376.0894" y="306.6387">&#171;concrete&#187;</text><text fill="#000000" font-family="sans-serif" font-size="14" lengthAdjust="spacing" textLength="110.6191" x="354.4595" y="322.4639">FactoryProvider</text><line style="stroke:#D97706;stroke-width:0.5;" x1="270.5" x2="516.5381" y1="330.7656" y2="330.7656"/><line style="stroke:#D97706;stroke-width:0.5;" x1="270.5" x2="516.5381" y1="338.7656" y2="338.7656"/><ellipse cx="280.5" cy="352.4141" fill="#84BE84" rx="3" ry="3" style="stroke:#038048;stroke-width:1.0;"/><text fill="#000000" font-family="sans-serif" font-size="14" lengthAdjust="spacing" textLength="222.0381" x="289.5" y="355.7607">getFactory(platform): UIFactory</text></g><!--class UIFactory--><g id="elem_UIFactory"><rect codeLine="39" fill="#F2F8FF" height="88.8594" id="UIFactory" rx="2.5" ry="2.5" style="stroke:#2B6CB0;stroke-width:0.5;" width="184.6279" x="614" y="286.5"/><ellipse cx="668.6636" cy="306.6328" fill="#B4A7E5" rx="11" ry="11" style="stroke:#181818;stroke-width:1.0;"/><path d="M664.5854,302.3984 L664.5854,300.2422 L671.9761,300.2422 L671.9761,302.3984 L669.5073,302.3984 L669.5073,310.4766 L671.9761,310.4766 L671.9761,312.6328 L664.5854,312.6328 L664.5854,310.4766 L667.0542,310.4766 L667.0542,302.3984 L664.5854,302.3984 Z " fill="#000000"/><text fill="#000000" font-family="sans-serif" font-size="12" font-style="italic" lengthAdjust="spacing" textLength="68.332" x="688.3979" y="302.6387">&#171;interface&#187;</text><text fill="#000000" font-family="sans-serif" font-size="14" font-style="italic" lengthAdjust="spacing" textLength="66.8008" x="689.1636" y="318.4639">UIFactory</text><line style="stroke:#2B6CB0;stroke-width:0.5;" x1="615" x2="797.6279" y1="326.7656" y2="326.7656"/><line style="stroke:#2B6CB0;stroke-width:0.5;" x1="615" x2="797.6279" y1="334.7656" y2="334.7656"/><ellipse cx="625" cy="348.4141" fill="#84BE84" rx="3" ry="3" style="stroke:#038048;stroke-width:1.0;"/><text fill="#000000" font-family="sans-serif" font-size="14" lengthAdjust="spacing" textLength="158.6279" x="634" y="351.7607">createButton(): Button</text><ellipse cx="625" cy="364.7109" fill="#84BE84" rx="3" ry="3" style="stroke:#038048;stroke-width:1.0;"/><text fill="#000000" font-family="sans-serif" font-size="14" lengthAdjust="spacing" textLength="141.7158" x="634" y="368.0576">createMenu(): Menu</text></g><!--class Button--><g id="elem_Button"><rect codeLine="46" fill="#F2F8FF" height="56.2656" id="Button" rx="2.5" ry="2.5" style="stroke:#2B6CB0;stroke-width:0.5;" width="96.332" x="903.5" y="99"/><ellipse cx="918.5" cy="119.1328" fill="#B4A7E5" rx="11" ry="11" style="stroke:#181818;stroke-width:1.0;"/><path d="M914.4219,114.8984 L914.4219,112.7422 L921.8125,112.7422 L921.8125,114.8984 L919.3438,114.8984 L919.3438,122.9766 L921.8125,122.9766 L921.8125,125.1328 L914.4219,125.1328 L914.4219,122.9766 L916.8906,122.9766 L916.8906,114.8984 L914.4219,114.8984 Z " fill="#000000"/><text fill="#000000" font-family="sans-serif" font-size="12" font-style="italic" lengthAdjust="spacing" textLength="68.332" x="930.5" y="115.1387">&#171;interface&#187;</text><text fill="#000000" font-family="sans-serif" font-size="14" font-style="italic" lengthAdjust="spacing" textLength="46.8945" x="941.2188" y="130.9639">Button</text><line style="stroke:#2B6CB0;stroke-width:0.5;" x1="904.5" x2="998.832" y1="139.2656" y2="139.2656"/><line style="stroke:#2B6CB0;stroke-width:0.5;" x1="904.5" x2="998.832" y1="147.2656" y2="147.2656"/></g><!--class Menu--><g id="elem_Menu"><rect codeLine="47" fill="#F2F8FF" height="56.2656" id="Menu" rx="2.5" ry="2.5" style="stroke:#2B6CB0;stroke-width:0.5;" width="96.332" x="903.5" y="190"/><ellipse cx="918.5" cy="210.1328" fill="#B4A7E5" rx="11" ry="11" style="stroke:#181818;stroke-width:1.0;"/><path d="M914.4219,205.8984 L914.4219,203.7422 L921.8125,203.7422 L921.8125,205.8984 L919.3438,205.8984 L919.3438,213.9766 L921.8125,213.9766 L921.8125,216.1328 L914.4219,216.1328 L914.4219,213.9766 L916.8906,213.9766 L916.8906,205.8984 L914.4219,205.8984 Z " fill="#000000"/><text fill="#000000" font-family="sans-serif" font-size="12" font-style="italic" lengthAdjust="spacing" textLength="68.332" x="930.5" y="206.1387">&#171;interface&#187;</text><text fill="#000000" font-family="sans-serif" font-size="14" font-style="italic" lengthAdjust="spacing" textLength="38.4385" x="945.4468" y="221.9639">Menu</text><line style="stroke:#2B6CB0;stroke-width:0.5;" x1="904.5" x2="998.832" y1="230.2656" y2="230.2656"/><line style="stroke:#2B6CB0;stroke-width:0.5;" x1="904.5" x2="998.832" y1="238.2656" y2="238.2656"/></g><!--class FlutterFactory--><g id="elem_FlutterFactory"><rect codeLine="52" fill="#FFF7ED" height="88.8594" id="FlutterFactory" rx="2.5" ry="2.5" style="stroke:#D97706;stroke-width:0.5;" width="184.6279" x="859" y="444.5"/><ellipse cx="898.318" cy="464.6328" fill="#ADD1B2" rx="11" ry="11" style="stroke:#181818;stroke-width:1.0;"/><path d="M901.2868,470.2734 Q900.7086,470.5703 900.068,470.7109 Q899.4274,470.8672 898.7243,470.8672 Q896.2243,470.8672 894.8961,469.2266 Q893.5836,467.5703 893.5836,464.4453 Q893.5836,461.3203 894.8961,459.6641 Q896.2243,458.0078 898.7243,458.0078 Q899.4274,458.0078 900.068,458.1641 Q900.7243,458.3203 901.2868,458.6172 L901.2868,461.3359 Q900.6618,460.7578 900.068,460.4922 Q899.4743,460.2109 898.8493,460.2109 Q897.5055,460.2109 896.818,461.2891 Q896.1305,462.3516 896.1305,464.4453 Q896.1305,466.5391 896.818,467.6172 Q897.5055,468.6797 898.8493,468.6797 Q899.4743,468.6797 900.068,468.4141 Q900.6618,468.1328 901.2868,467.5547 L901.2868,470.2734 Z " fill="#000000"/><text fill="#000000" font-family="sans-serif" font-size="12" font-style="italic" lengthAdjust="spacing" textLength="67.3594" x="933.3363" y="460.6387">&#171;concrete&#187;</text><text fill="#000000" font-family="sans-serif" font-size="14" lengthAdjust="spacing" textLength="98.5879" x="917.722" y="476.4639">FlutterFactory</text><line style="stroke:#D97706;stroke-width:0.5;" x1="860" x2="1042.6279" y1="484.7656" y2="484.7656"/><line style="stroke:#D97706;stroke-width:0.5;" x1="860" x2="1042.6279" y1="492.7656" y2="492.7656"/><ellipse cx="870" cy="506.4141" fill="#84BE84" rx="3" ry="3" style="stroke:#038048;stroke-width:1.0;"/><text fill="#000000" font-family="sans-serif" font-size="14" lengthAdjust="spacing" textLength="158.6279" x="879" y="509.7607">createButton(): Button</text><ellipse cx="870" cy="522.7109" fill="#84BE84" rx="3" ry="3" style="stroke:#038048;stroke-width:1.0;"/><text fill="#000000" font-family="sans-serif" font-size="14" lengthAdjust="spacing" textLength="141.7158" x="879" y="526.0576">createMenu(): Menu</text></g><!--class AndroidFactory--><g id="elem_AndroidFactory"><rect codeLine="56" fill="#FFF7ED" height="88.8594" id="AndroidFactory" rx="2.5" ry="2.5" style="stroke:#D97706;stroke-width:0.5;" width="184.6279" x="859" y="568.5"/><ellipse cx="894.5958" cy="588.6328" fill="#ADD1B2" rx="11" ry="11" style="stroke:#181818;stroke-width:1.0;"/><path d="M897.5646,594.2734 Q896.9865,594.5703 896.3458,594.7109 Q895.7052,594.8672 895.0021,594.8672 Q892.5021,594.8672 891.174,593.2266 Q889.8615,591.5703 889.8615,588.4453 Q889.8615,585.3203 891.174,583.6641 Q892.5021,582.0078 895.0021,582.0078 Q895.7052,582.0078 896.3458,582.1641 Q897.0021,582.3203 897.5646,582.6172 L897.5646,585.3359 Q896.9396,584.7578 896.3458,584.4922 Q895.7521,584.2109 895.1271,584.2109 Q893.7833,584.2109 893.0958,585.2891 Q892.4083,586.3516 892.4083,588.4453 Q892.4083,590.5391 893.0958,591.6172 Q893.7833,592.6797 895.1271,592.6797 Q895.7521,592.6797 896.3458,592.4141 Q896.9396,592.1328 897.5646,591.5547 L897.5646,594.2734 Z " fill="#000000"/><text fill="#000000" font-family="sans-serif" font-size="12" font-style="italic" lengthAdjust="spacing" textLength="67.3594" x="932.9227" y="584.6387">&#171;concrete&#187;</text><text fill="#000000" font-family="sans-serif" font-size="14" lengthAdjust="spacing" textLength="106.8594" x="913.1727" y="600.4639">AndroidFactory</text><line style="stroke:#D97706;stroke-width:0.5;" x1="860" x2="1042.6279" y1="608.7656" y2="608.7656"/><line style="stroke:#D97706;stroke-width:0.5;" x1="860" x2="1042.6279" y1="616.7656" y2="616.7656"/><ellipse cx="870" cy="630.4141" fill="#84BE84" rx="3" ry="3" style="stroke:#038048;stroke-width:1.0;"/><text fill="#000000" font-family="sans-serif" font-size="14" lengthAdjust="spacing" textLength="158.6279" x="879" y="633.7607">createButton(): Button</text><ellipse cx="870" cy="646.7109" fill="#84BE84" rx="3" ry="3" style="stroke:#038048;stroke-width:1.0;"/><text fill="#000000" font-family="sans-serif" font-size="14" lengthAdjust="spacing" textLength="141.7158" x="879" y="650.0576">createMenu(): Menu</text></g><!--class IOSFactory--><g id="elem_IOSFactory"><rect codeLine="60" fill="#FFF7ED" height="88.8594" id="IOSFactory" rx="2.5" ry="2.5" style="stroke:#D97706;stroke-width:0.5;" width="184.6279" x="859" y="320.5"/><ellipse cx="908.834" cy="340.6328" fill="#ADD1B2" rx="11" ry="11" style="stroke:#181818;stroke-width:1.0;"/><path d="M911.8027,346.2734 Q911.2246,346.5703 910.584,346.7109 Q909.9434,346.8672 909.2402,346.8672 Q906.7402,346.8672 905.4121,345.2266 Q904.0996,343.5703 904.0996,340.4453 Q904.0996,337.3203 905.4121,335.6641 Q906.7402,334.0078 909.2402,334.0078 Q909.9434,334.0078 910.584,334.1641 Q911.2402,334.3203 911.8027,334.6172 L911.8027,337.3359 Q911.1777,336.7578 910.584,336.4922 Q909.9902,336.2109 909.3652,336.2109 Q908.0215,336.2109 907.334,337.2891 Q906.6465,338.3516 906.6465,340.4453 Q906.6465,342.5391 907.334,343.6172 Q908.0215,344.6797 909.3652,344.6797 Q909.9902,344.6797 910.584,344.4141 Q911.1777,344.1328 911.8027,343.5547 L911.8027,346.2734 Z " fill="#000000"/><text fill="#000000" font-family="sans-serif" font-size="12" font-style="italic" lengthAdjust="spacing" textLength="67.3594" x="933.8843" y="336.6387">&#171;concrete&#187;</text><text fill="#000000" font-family="sans-serif" font-size="14" lengthAdjust="spacing" textLength="76.46" x="929.334" y="352.4639">IOSFactory</text><line style="stroke:#D97706;stroke-width:0.5;" x1="860" x2="1042.6279" y1="360.7656" y2="360.7656"/><line style="stroke:#D97706;stroke-width:0.5;" x1="860" x2="1042.6279" y1="368.7656" y2="368.7656"/><ellipse cx="870" cy="382.4141" fill="#84BE84" rx="3" ry="3" style="stroke:#038048;stroke-width:1.0;"/><text fill="#000000" font-family="sans-serif" font-size="14" lengthAdjust="spacing" textLength="158.6279" x="879" y="385.7607">createButton(): Button</text><ellipse cx="870" cy="398.7109" fill="#84BE84" rx="3" ry="3" style="stroke:#038048;stroke-width:1.0;"/><text fill="#000000" font-family="sans-serif" font-size="14" lengthAdjust="spacing" textLength="141.7158" x="879" y="402.0576">createMenu(): Menu</text></g><!--class FlutterButton--><g id="elem_FlutterButton"><rect codeLine="67" fill="#FFF7ED" height="56.2656" id="FlutterButton" rx="2.5" ry="2.5" style="stroke:#D97706;stroke-width:0.5;" width="125.0576" x="1211.5" y="188"/><ellipse cx="1226.5" cy="208.1328" fill="#ADD1B2" rx="11" ry="11" style="stroke:#181818;stroke-width:1.0;"/><path d="M1229.4688,213.7734 Q1228.8906,214.0703 1228.25,214.2109 Q1227.6094,214.3672 1226.9063,214.3672 Q1224.4063,214.3672 1223.0781,212.7266 Q1221.7656,211.0703 1221.7656,207.9453 Q1221.7656,204.8203 1223.0781,203.1641 Q1224.4063,201.5078 1226.9063,201.5078 Q1227.6094,201.5078 1228.25,201.6641 Q1228.9063,201.8203 1229.4688,202.1172 L1229.4688,204.8359 Q1228.8438,204.2578 1228.25,203.9922 Q1227.6563,203.7109 1227.0313,203.7109 Q1225.6875,203.7109 1225,204.7891 Q1224.3125,205.8516 1224.3125,207.9453 Q1224.3125,210.0391 1225,211.1172 Q1225.6875,212.1797 1227.0313,212.1797 Q1227.6563,212.1797 1228.25,211.9141 Q1228.8438,211.6328 1229.4688,211.0547 L1229.4688,213.7734 Z " fill="#000000"/><text fill="#000000" font-family="sans-serif" font-size="12" font-style="italic" lengthAdjust="spacing" textLength="67.3594" x="1253.3491" y="204.1387">&#171;concrete&#187;</text><text fill="#000000" font-family="sans-serif" font-size="14" lengthAdjust="spacing" textLength="93.0576" x="1240.5" y="219.9639">FlutterButton</text><line style="stroke:#D97706;stroke-width:0.5;" x1="1212.5" x2="1335.5576" y1="228.2656" y2="228.2656"/><line style="stroke:#D97706;stroke-width:0.5;" x1="1212.5" x2="1335.5576" y1="236.2656" y2="236.2656"/></g><!--class FlutterMenu--><g id="elem_FlutterMenu"><rect codeLine="68" fill="#FFF7ED" height="56.2656" id="FlutterMenu" rx="2.5" ry="2.5" style="stroke:#D97706;stroke-width:0.5;" width="116.6016" x="1215.5" y="461"/><ellipse cx="1230.5" cy="481.1328" fill="#ADD1B2" rx="11" ry="11" style="stroke:#181818;stroke-width:1.0;"/><path d="M1233.4688,486.7734 Q1232.8906,487.0703 1232.25,487.2109 Q1231.6094,487.3672 1230.9063,487.3672 Q1228.4063,487.3672 1227.0781,485.7266 Q1225.7656,484.0703 1225.7656,480.9453 Q1225.7656,477.8203 1227.0781,476.1641 Q1228.4063,474.5078 1230.9063,474.5078 Q1231.6094,474.5078 1232.25,474.6641 Q1232.9063,474.8203 1233.4688,475.1172 L1233.4688,477.8359 Q1232.8438,477.2578 1232.25,476.9922 Q1231.6563,476.7109 1231.0313,476.7109 Q1229.6875,476.7109 1229,477.7891 Q1228.3125,478.8516 1228.3125,480.9453 Q1228.3125,483.0391 1229,484.1172 Q1229.6875,485.1797 1231.0313,485.1797 Q1231.6563,485.1797 1232.25,484.9141 Q1232.8438,484.6328 1233.4688,484.0547 L1233.4688,486.7734 Z " fill="#000000"/><text fill="#000000" font-family="sans-serif" font-size="12" font-style="italic" lengthAdjust="spacing" textLength="67.3594" x="1253.1211" y="477.1387">&#171;concrete&#187;</text><text fill="#000000" font-family="sans-serif" font-size="14" lengthAdjust="spacing" textLength="84.6016" x="1244.5" y="492.9639">FlutterMenu</text><line style="stroke:#D97706;stroke-width:0.5;" x1="1216.5" x2="1331.1016" y1="501.2656" y2="501.2656"/><line style="stroke:#D97706;stroke-width:0.5;" x1="1216.5" x2="1331.1016" y1="509.2656" y2="509.2656"/></g><!--class AndroidButton--><g id="elem_AndroidButton"><rect codeLine="69" fill="#FFF7ED" height="56.2656" id="AndroidButton" rx="2.5" ry="2.5" style="stroke:#D97706;stroke-width:0.5;" width="133.3291" x="1207.5" y="279"/><ellipse cx="1222.5" cy="299.1328" fill="#ADD1B2" rx="11" ry="11" style="stroke:#181818;stroke-width:1.0;"/><path d="M1225.4688,304.7734 Q1224.8906,305.0703 1224.25,305.2109 Q1223.6094,305.3672 1222.9063,305.3672 Q1220.4063,305.3672 1219.0781,303.7266 Q1217.7656,302.0703 1217.7656,298.9453 Q1217.7656,295.8203 1219.0781,294.1641 Q1220.4063,292.5078 1222.9063,292.5078 Q1223.6094,292.5078 1224.25,292.6641 Q1224.9063,292.8203 1225.4688,293.1172 L1225.4688,295.8359 Q1224.8438,295.2578 1224.25,294.9922 Q1223.6563,294.7109 1223.0313,294.7109 Q1221.6875,294.7109 1221,295.7891 Q1220.3125,296.8516 1220.3125,298.9453 Q1220.3125,301.0391 1221,302.1172 Q1221.6875,303.1797 1223.0313,303.1797 Q1223.6563,303.1797 1224.25,302.9141 Q1224.8438,302.6328 1225.4688,302.0547 L1225.4688,304.7734 Z " fill="#000000"/><text fill="#000000" font-family="sans-serif" font-size="12" font-style="italic" lengthAdjust="spacing" textLength="67.3594" x="1253.4849" y="295.1387">&#171;concrete&#187;</text><text fill="#000000" font-family="sans-serif" font-size="14" lengthAdjust="spacing" textLength="101.3291" x="1236.5" y="310.9639">AndroidButton</text><line style="stroke:#D97706;stroke-width:0.5;" x1="1208.5" x2="1339.8291" y1="319.2656" y2="319.2656"/><line style="stroke:#D97706;stroke-width:0.5;" x1="1208.5" x2="1339.8291" y1="327.2656" y2="327.2656"/></g><!--class AndroidMenu--><g id="elem_AndroidMenu"><rect codeLine="70" fill="#FFF7ED" height="56.2656" id="AndroidMenu" rx="2.5" ry="2.5" style="stroke:#D97706;stroke-width:0.5;" width="124.873" x="1211.5" y="552"/><ellipse cx="1226.5" cy="572.1328" fill="#ADD1B2" rx="11" ry="11" style="stroke:#181818;stroke-width:1.0;"/><path d="M1229.4688,577.7734 Q1228.8906,578.0703 1228.25,578.2109 Q1227.6094,578.3672 1226.9063,578.3672 Q1224.4063,578.3672 1223.0781,576.7266 Q1221.7656,575.0703 1221.7656,571.9453 Q1221.7656,568.8203 1223.0781,567.1641 Q1224.4063,565.5078 1226.9063,565.5078 Q1227.6094,565.5078 1228.25,565.6641 Q1228.9063,565.8203 1229.4688,566.1172 L1229.4688,568.8359 Q1228.8438,568.2578 1228.25,567.9922 Q1227.6563,567.7109 1227.0313,567.7109 Q1225.6875,567.7109 1225,568.7891 Q1224.3125,569.8516 1224.3125,571.9453 Q1224.3125,574.0391 1225,575.1172 Q1225.6875,576.1797 1227.0313,576.1797 Q1227.6563,576.1797 1228.25,575.9141 Q1228.8438,575.6328 1229.4688,575.0547 L1229.4688,577.7734 Z " fill="#000000"/><text fill="#000000" font-family="sans-serif" font-size="12" font-style="italic" lengthAdjust="spacing" textLength="67.3594" x="1253.2568" y="568.1387">&#171;concrete&#187;</text><text fill="#000000" font-family="sans-serif" font-size="14" lengthAdjust="spacing" textLength="92.873" x="1240.5" y="583.9639">AndroidMenu</text><line style="stroke:#D97706;stroke-width:0.5;" x1="1212.5" x2="1335.373" y1="592.2656" y2="592.2656"/><line style="stroke:#D97706;stroke-width:0.5;" x1="1212.5" x2="1335.373" y1="600.2656" y2="600.2656"/></g><!--class IOSButton--><g id="elem_IOSButton"><rect codeLine="71" fill="#FFF7ED" height="56.2656" id="IOSButton" rx="2.5" ry="2.5" style="stroke:#D97706;stroke-width:0.5;" width="102.9297" x="1222.5" y="97"/><ellipse cx="1237.5" cy="117.1328" fill="#ADD1B2" rx="11" ry="11" style="stroke:#181818;stroke-width:1.0;"/><path d="M1240.4688,122.7734 Q1239.8906,123.0703 1239.25,123.2109 Q1238.6094,123.3672 1237.9063,123.3672 Q1235.4063,123.3672 1234.0781,121.7266 Q1232.7656,120.0703 1232.7656,116.9453 Q1232.7656,113.8203 1234.0781,112.1641 Q1235.4063,110.5078 1237.9063,110.5078 Q1238.6094,110.5078 1239.25,110.6641 Q1239.9063,110.8203 1240.4688,111.1172 L1240.4688,113.8359 Q1239.8438,113.2578 1239.25,112.9922 Q1238.6563,112.7109 1238.0313,112.7109 Q1236.6875,112.7109 1236,113.7891 Q1235.3125,114.8516 1235.3125,116.9453 Q1235.3125,119.0391 1236,120.1172 Q1236.6875,121.1797 1238.0313,121.1797 Q1238.6563,121.1797 1239.25,120.9141 Q1239.8438,120.6328 1240.4688,120.0547 L1240.4688,122.7734 Z " fill="#000000"/><text fill="#000000" font-family="sans-serif" font-size="12" font-style="italic" lengthAdjust="spacing" textLength="67.3594" x="1253.2852" y="113.1387">&#171;concrete&#187;</text><text fill="#000000" font-family="sans-serif" font-size="14" lengthAdjust="spacing" textLength="70.9297" x="1251.5" y="128.9639">IOSButton</text><line style="stroke:#D97706;stroke-width:0.5;" x1="1223.5" x2="1324.4297" y1="137.2656" y2="137.2656"/><line style="stroke:#D97706;stroke-width:0.5;" x1="1223.5" x2="1324.4297" y1="145.2656" y2="145.2656"/></g><!--class IOSMenu--><g id="elem_IOSMenu"><rect codeLine="72" fill="#FFF7ED" height="56.2656" id="IOSMenu" rx="2.5" ry="2.5" style="stroke:#D97706;stroke-width:0.5;" width="95.3594" x="1226.5" y="370"/><ellipse cx="1241.5" cy="390.1328" fill="#ADD1B2" rx="11" ry="11" style="stroke:#181818;stroke-width:1.0;"/><path d="M1244.4688,395.7734 Q1243.8906,396.0703 1243.25,396.2109 Q1242.6094,396.3672 1241.9063,396.3672 Q1239.4063,396.3672 1238.0781,394.7266 Q1236.7656,393.0703 1236.7656,389.9453 Q1236.7656,386.8203 1238.0781,385.1641 Q1239.4063,383.5078 1241.9063,383.5078 Q1242.6094,383.5078 1243.25,383.6641 Q1243.9063,383.8203 1244.4688,384.1172 L1244.4688,386.8359 Q1243.8438,386.2578 1243.25,385.9922 Q1242.6563,385.7109 1242.0313,385.7109 Q1240.6875,385.7109 1240,386.7891 Q1239.3125,387.8516 1239.3125,389.9453 Q1239.3125,392.0391 1240,393.1172 Q1240.6875,394.1797 1242.0313,394.1797 Q1242.6563,394.1797 1243.25,393.9141 Q1243.8438,393.6328 1244.4688,393.0547 L1244.4688,395.7734 Z " fill="#000000"/><text fill="#000000" font-family="sans-serif" font-size="12" font-style="italic" lengthAdjust="spacing" textLength="67.3594" x="1253.5" y="386.1387">&#171;concrete&#187;</text><text fill="#000000" font-family="sans-serif" font-size="14" lengthAdjust="spacing" textLength="62.4736" x="1255.9429" y="401.9639">IOSMenu</text><line style="stroke:#D97706;stroke-width:0.5;" x1="1227.5" x2="1320.8594" y1="410.2656" y2="410.2656"/><line style="stroke:#D97706;stroke-width:0.5;" x1="1227.5" x2="1320.8594" y1="418.2656" y2="418.2656"/></g><g id="elem_GMN45"><path d="M233,399 L233,439.2656 A0,0 0 0 0 233,439.2656 L553.6221,439.2656 A0,0 0 0 0 553.6221,439.2656 L553.6221,409 L543.6221,399 L398,399 L394,363.65 L390,399 L233,399 A0,0 0 0 0 233,399 " fill="#FEFFDD" style="stroke:#181818;stroke-width:0.5;"/><path d="M543.6221,399 L543.6221,409 L553.6221,409 L543.6221,399 " fill="#FEFFDD" style="stroke:#181818;stroke-width:0.5;"/><text fill="#000000" font-family="sans-serif" font-size="13" lengthAdjust="spacing" textLength="299.6221" x="239" y="416.0669">FactoryProvider centralizes platform selection</text><text fill="#000000" font-family="sans-serif" font-size="13" lengthAdjust="spacing" textLength="219.0767" x="239" y="431.1997">and returns a concrete UIFactory.</text></g><g id="elem_GMN48"><path d="M1104,6 L1104,46.2656 L1444.084,46.2656 L1444.084,16 L1434.084,6 L1104,6 " fill="#FEFFDD" style="stroke:#181818;stroke-width:0.5;"/><path d="M1434.084,6 L1434.084,16 L1444.084,16 L1434.084,6 " fill="#FEFFDD" style="stroke:#181818;stroke-width:1.0;"/><text fill="#000000" font-family="sans-serif" font-size="13" lengthAdjust="spacing" textLength="264.9321" x="1110" y="23.0669">App depends only on product interfaces:</text><text fill="#000000" font-family="sans-serif" font-size="13" lengthAdjust="spacing" textLength="319.084" x="1110" y="38.1997">decoupling client and concrete implementations.</text></g><!--link App to FactoryProvider--><!--link App to FactoryProvider--><g id="link_App_FactoryProvider"><path codeLine="82" d="M173.34,299.5 C202.55,299.5 230.72,299.5 263.3,299.5 " fill="none" id="App-to-FactoryProvider-1" style="stroke:#D97706;stroke-width:1.0;"/><polygon fill="#D97706" points="269.3,299.5,260.3,295.5,264.3,299.5,260.3,303.5,269.3,299.5" style="stroke:#D97706;stroke-width:1.0;"/><text fill="#000000" font-family="sans-serif" font-size="13" lengthAdjust="spacing" textLength="163.9917" x="222.32" y="295.5669">requestFactory(platform)</text></g><!--link FactoryProvider to UIFactory--><!--link FactoryProvider to UIFactory--><g id="link_FactoryProvider_UIFactory"><path codeLine="83" d="M517.66,314.83 C549.74,314.83 577.73,314.83 607.89,314.83 " fill="none" id="FactoryProvider-to-UIFactory-1" style="stroke:#D97706;stroke-width:1.0;"/><polygon fill="#D97706" points="613.89,314.83,604.89,310.83,608.89,314.83,604.89,318.83,613.89,314.83" style="stroke:#D97706;stroke-width:1.0;"/><text fill="#000000" font-family="sans-serif" font-size="13" lengthAdjust="spacing" textLength="174.2559" x="390.77" y="327.8969">returns concrete UIFactory</text></g><!--link UIFactory to Button--><!--link UIFactory to Menu--><!--reverse link UIFactory to FlutterFactory--><g id="link_UIFactory_FlutterFactory"><path codeLine="85" d="M738,393.85 C738,440.57 738,489 738,489 C738,489 801.17,489 858.79,489 " fill="none" id="UIFactory-backto-FlutterFactory" style="stroke:#D97706;stroke-width:1.0;stroke-dasharray:7.0,7.0;"/><polygon fill="none" points="738,375.85,732,393.85,744,393.85,738,375.85" style="stroke:#D97706;stroke-width:1.0;"/></g><!--reverse link UIFactory to AndroidFactory--><g id="link_UIFactory_AndroidFactory"><path codeLine="86" d="M676,393.68 C676,473.2 676,613 676,613 C676,613 778.96,613 859,613 " fill="none" id="UIFactory-backto-AndroidFactory" style="stroke:#D97706;stroke-width:1.0;stroke-dasharray:7.0,7.0;"/><polygon fill="none" points="676,375.68,670,393.68,682,393.68,676,375.68" style="stroke:#D97706;stroke-width:1.0;"/></g><!--reverse link UIFactory to IOSFactory--><g id="link_UIFactory_IOSFactory"><path codeLine="87" d="M817.12,348 C836.64,348 839.23,348 858.75,348 " fill="none" id="UIFactory-backto-IOSFactory" style="stroke:#D97706;stroke-width:1.0;stroke-dasharray:7.0,7.0;"/><polygon fill="none" points="799.12,348,817.12,354,817.12,342,799.12,348" style="stroke:#D97706;stroke-width:1.0;"/></g><!--reverse link Button to FlutterButton--><g id="link_Button_FlutterButton"><path codeLine="89" d="M1017.58,120.6 C1094.09,120.6 1217,120.6 1217,120.6 C1217,120.6 1217,159.75 1217,187.89 " fill="none" id="Button-backto-FlutterButton" style="stroke:#D97706;stroke-width:1.0;stroke-dasharray:7.0,7.0;"/><polygon fill="none" points="999.58,120.6,1017.58,126.6,1017.58,114.6,999.58,120.6" style="stroke:#D97706;stroke-width:1.0;"/></g><!--reverse link Menu to FlutterMenu--><g id="link_Menu_FlutterMenu"><path codeLine="90" d="M1017.7,200.8 C1078.16,200.8 1156,200.8 1156,200.8 C1156,200.8 1156,479.67 1156,479.67 C1156,479.67 1185.73,479.67 1215.35,479.67 " fill="none" id="Menu-backto-FlutterMenu" style="stroke:#D97706;stroke-width:1.0;stroke-dasharray:7.0,7.0;"/><polygon fill="none" points="999.7,200.8,1017.7,206.8,1017.7,194.8,999.7,200.8" style="stroke:#D97706;stroke-width:1.0;"/></g><!--reverse link Button to AndroidButton--><g id="link_Button_AndroidButton"><path codeLine="92" d="M1017.74,142.2 C1059.08,142.2 1094,142.2 1094,142.2 C1094,142.2 1094,282.75 1094,282.75 C1094,282.75 1156.21,282.75 1207.49,282.75 " fill="none" id="Button-backto-AndroidButton" style="stroke:#D97706;stroke-width:1.0;stroke-dasharray:7.0,7.0;"/><polygon fill="none" points="999.74,142.2,1017.74,148.2,1017.74,136.2,999.74,142.2" style="stroke:#D97706;stroke-width:1.0;"/></g><!--reverse link Menu to AndroidMenu--><g id="link_Menu_AndroidMenu"><path codeLine="93" d="M1017.54,233.2 C1048.11,233.2 1064,233.2 1064,233.2 C1064,233.2 1064,560.25 1064,560.25 C1064,560.25 1149.4,560.25 1211.28,560.25 " fill="none" id="Menu-backto-AndroidMenu" style="stroke:#D97706;stroke-width:1.0;stroke-dasharray:7.0,7.0;"/><polygon fill="none" points="999.54,233.2,1017.54,239.2,1017.54,227.2,999.54,233.2" style="stroke:#D97706;stroke-width:1.0;"/></g><!--reverse link Button to IOSButton--><g id="link_Button_IOSButton"><path codeLine="95" d="M1017.78,109.8 C1077.61,109.8 1161.14,109.8 1222.45,109.8 " fill="none" id="Button-backto-IOSButton" style="stroke:#D97706;stroke-width:1.0;stroke-dasharray:7.0,7.0;"/><polygon fill="none" points="999.78,109.8,1017.78,115.8,1017.78,103.8,999.78,109.8" style="stroke:#D97706;stroke-width:1.0;"/></g><!--reverse link Menu to IOSMenu--><g id="link_Menu_IOSMenu"><path codeLine="96" d="M1017.71,211.6 C1055.6,211.6 1084,211.6 1084,211.6 C1084,211.6 1084,383.17 1084,383.17 C1084,383.17 1169.77,383.17 1226.05,383.17 " fill="none" id="Menu-backto-IOSMenu" style="stroke:#D97706;stroke-width:1.0;stroke-dasharray:7.0,7.0;"/><polygon fill="none" points="999.71,211.6,1017.71,217.6,1017.71,205.6,999.71,211.6" style="stroke:#D97706;stroke-width:1.0;"/></g><!--link FlutterFactory to FlutterButton--><g id="link_FlutterFactory_FlutterButton"><path codeLine="99" d="M1044.17,452.75 C1050.24,452.75 1054,452.75 1054,452.75 C1054,452.75 1054,222.4 1054,222.4 C1054,222.4 1140.23,222.4 1205.25,222.4 " fill="none" id="FlutterFactory-to-FlutterButton" style="stroke:#D97706;stroke-width:1.0;"/><polygon fill="#D97706" points="1211.25,222.4,1202.25,218.4,1206.25,222.4,1202.25,226.4,1211.25,222.4" style="stroke:#D97706;stroke-width:1.0;"/><text fill="#000000" font-family="sans-serif" font-size="13" lengthAdjust="spacing" textLength="95.2402" x="958" y="276.9269">createButton()</text></g><!--link FlutterFactory to FlutterMenu--><g id="link_FlutterFactory_FlutterMenu"><path codeLine="100" d="M1044.35,498.33 C1099.43,498.33 1161.58,498.33 1209.28,498.33 " fill="none" id="FlutterFactory-to-FlutterMenu" style="stroke:#D97706;stroke-width:1.0;"/><polygon fill="#D97706" points="1215.28,498.33,1206.28,494.33,1210.28,498.33,1206.28,502.33,1215.28,498.33" style="stroke:#D97706;stroke-width:1.0;"/><text fill="#000000" font-family="sans-serif" font-size="13" lengthAdjust="spacing" textLength="87.3882" x="1041.81" y="511.3969">createMenu()</text></g><!--link AndroidFactory to AndroidButton--><g id="link_AndroidFactory_AndroidButton"><path codeLine="102" d="M1044.03,594.83 C1061.28,594.83 1074,594.83 1074,594.83 C1074,594.83 1074,327.75 1074,327.75 C1074,327.75 1143.22,327.75 1201.4,327.75 " fill="none" id="AndroidFactory-to-AndroidButton" style="stroke:#D97706;stroke-width:1.0;"/><polygon fill="#D97706" points="1207.4,327.75,1198.4,323.75,1202.4,327.75,1198.4,331.75,1207.4,327.75" style="stroke:#D97706;stroke-width:1.0;"/><text fill="#000000" font-family="sans-serif" font-size="13" lengthAdjust="spacing" textLength="95.2402" x="978" y="422.6369">createButton()</text></g><!--link AndroidFactory to AndroidMenu--><g id="link_AndroidFactory_AndroidMenu"><path codeLine="103" d="M1044.35,581.67 C1097.94,581.67 1157.9,581.67 1205.36,581.67 " fill="none" id="AndroidFactory-to-AndroidMenu" style="stroke:#D97706;stroke-width:1.0;"/><polygon fill="#D97706" points="1211.36,581.67,1202.36,577.67,1206.36,581.67,1202.36,585.67,1211.36,581.67" style="stroke:#D97706;stroke-width:1.0;"/><text fill="#000000" font-family="sans-serif" font-size="13" lengthAdjust="spacing" textLength="87.3882" x="1039.86" y="577.7369">createMenu()</text></g><!--link IOSFactory to IOSButton--><g id="link_IOSFactory_IOSButton"><path codeLine="105" d="M1022,320.24 C1022,252.41 1022,131.4 1022,131.4 C1022,131.4 1142.67,131.4 1216.4,131.4 " fill="none" id="IOSFactory-to-IOSButton" style="stroke:#D97706;stroke-width:1.0;"/><polygon fill="#D97706" points="1222.4,131.4,1213.4,127.4,1217.4,131.4,1213.4,135.4,1222.4,131.4" style="stroke:#D97706;stroke-width:1.0;"/><text fill="#000000" font-family="sans-serif" font-size="13" lengthAdjust="spacing" textLength="95.2402" x="1028.78" y="144.4669">createButton()</text></g><!--link IOSFactory to IOSMenu--><g id="link_IOSFactory_IOSMenu"><path codeLine="106" d="M1044.35,396.33 C1103.89,396.33 1172.71,396.33 1220.46,396.33 " fill="none" id="IOSFactory-to-IOSMenu" style="stroke:#D97706;stroke-width:1.0;"/><polygon fill="#D97706" points="1226.46,396.33,1217.46,392.33,1221.46,396.33,1217.46,400.33,1226.46,396.33" style="stroke:#D97706;stroke-width:1.0;"/><text fill="#000000" font-family="sans-serif" font-size="13" lengthAdjust="spacing" textLength="87.3882" x="1136.4" y="409.3969">createMenu()</text></g><!--link App to Button--><g id="link_App_Button"><path codeLine="109" d="M98,228.49 C98,182.59 98,117.67 98,117.67 C98,117.67 717.33,117.67 897.48,117.67 " fill="none" id="App-to-Button" style="stroke:#D97706;stroke-width:1.0;stroke-dasharray:7.0,7.0;"/><polygon fill="#D97706" points="903.48,117.67,894.48,113.67,898.48,117.67,894.48,121.67,903.48,117.67" style="stroke:#D97706;stroke-width:1.0;"/><text fill="#000000" font-family="sans-serif" font-size="13" lengthAdjust="spacing" textLength="115.2988" x="329.33" y="130.7369">uses via interface</text></g><!--link App to Menu--><g id="link_App_Menu"><path codeLine="110" d="M173.29,237.25 C345.35,237.25 755.53,237.25 897.28,237.25 " fill="none" id="App-to-Menu" style="stroke:#D97706;stroke-width:1.0;stroke-dasharray:7.0,7.0;"/><polygon fill="#D97706" points="903.28,237.25,894.28,233.25,898.28,237.25,894.28,241.25,903.28,237.25" style="stroke:#D97706;stroke-width:1.0;"/><text fill="#000000" font-family="sans-serif" font-size="13" lengthAdjust="spacing" textLength="115.2988" x="422.28" y="250.3169">uses via interface</text></g><!--link Button to GMN48--><g id="link_Button_GMN48"><path d="M952,98.87 C952,68.98 952,26 952,26 C952,26 1026.33,26 1103.57,26 " fill="none" id="Button-GMN48" style="stroke:#D97706;stroke-width:1.0;stroke-dasharray:7.0,7.0;"/></g><!--SRC=[jLPBRziu4BxhLmowXoG8R1GvD5qZ212dDH2WtIqskwUY1qOQoKGfaYKf6swR_zuXzI8b9rWKxIcEvfkPRvwS4xYhjL4xB63Bg-r2u0u5R5Zkb3b0mLbbM9sTm0AKSLjLASa4C6FKte9Jm7QA5q3gHZ0TO5mwD2NBqH8CmRg38Di5BqiqA9quG6bK3RcIkK67a0jcBTgWAzW32WyFHeW3LzA2tQezb4BjiqnWwRnRGrGT6JKOC9dzpALcn1G4b-WE6bkwaS1kMQ7sN5PGCc4nakIgraeIjtlF5PfQN6H4f_ql2YUA8TRs_E5R1h1c-UVAg4OMjqeeStKrw5vVmn-RYythpSR3b2dG78DSh5_ThbyIvCRdDo26Zu__psMVrk1nixby-sRgCKQy-VFoykMhYSFkuwFFmRzA0qbMv99JuC1aGUaBlR6mABhiQsB1AeGNjm7r8b1hITve3ObFBm8gTMTb1V_TTSqM1ETGCovFcQdi6Nruz3G6ytrNtlUUOq-Ty0FrCgTeZtazXmfTXplLWhbIcVeifV3O1lwU5mLLFyJE7gphct5EvcQKjdI6aevs8IrqpuROCOVhnZabJub7-oiHlaVPU97_Eyi7nLeqkOifs2c7rcPA805uonDnoC1QaMAz6WUrhHZtSqrTC7pMBGaBL3J3PEKN2S6-AkcOe6cVBWdjHx1T86THv_JcDhsNfBQ2ea0pPlD8QNyccKENoi8GnTzc_-xl-rzkEsw48NjTHnnBtj08e_yff6k58u0kGS_Pw21Fsw0aFATFuhbkwCHtxA0QHy-JTE7DCKWnqiDXbBNKJ9dVCOkFMvfOb9yMrzDDa4qtGumTHtySrbZULUAuCDI22Fw3j4lyy6svfZc8deoT7GQ5kZqGdHE45ONqfK4xtqrpxZ7deEWQ8qSlKK0HwQllo-LaYARIT0Icqh61iwmlOcIporAe7oIIDaMnIj9AYKhKGQdAq3a9l6iONu3R-Ovgf-RPDRNdRZk_QYZdwRO95KjcQ3KPs6SqEiAhP8gpRB9ml48wOZCNJskqBgOUefNZiUFmpIpFaK-GFWclUKF7Mf_D-3ewbShDhhgsvvVBVf38Pj3VSJRg3fZWzoY2VF-bQ8R2BUWV4DD8nsiCPs5uZnvGOicTpOW6qfRGeChP9e3PwELqhnWc-5SVL3TrC5us46ptGyQEZDaoGq9ufrdhkZrDoVcmn7ru1Mh2ML2IdaJAmpo1Aq8McAj62nzWT70DJdcj1TRqkTqsaUiV]--></g></svg>